<svg display="block" id="813014832" role="presentation" viewBox="0 0 112 40" xmlns="http://www.w3.org/2000/svg"><g fill="transparent" height="40px" id="xiTUliMRF" width="112.0000014944939px"><path d="M 9.171 21.925 L 9.686 19.957 L 9.937 19.917 L 11.409 21.549 L 11.436 21.579 L 13.446 21.272 L 13.589 21.023 C 13.489 20.909 13.369 20.783 13.242 20.646 C 12.857 20.243 12.395 19.78 12.085 19.428 C 13.055 19.027 13.897 18.304 14.105 17.502 C 14.195 17.158 14.182 16.876 14.082 16.646 C 14.075 16.626 14.067 16.606 14.058 16.585 C 14.042 16.555 14.024 16.526 14.004 16.499 C 13.971 16.453 13.933 16.411 13.891 16.372 C 13.867 16.348 13.841 16.326 13.814 16.306 C 13.756 16.265 13.695 16.23 13.63 16.202 L 13.553 16.163 C 13.444 16.125 13.332 16.097 13.218 16.079 C 13.195 16.076 13.165 16.079 13.142 16.072 C 13.034 16.062 12.926 16.056 12.817 16.056 C 12.64 16.056 12.452 16.072 12.239 16.102 L 8.633 16.652 L 7.181 22.219 L 9.161 21.915 Z M 10.288 17.654 L 11.56 17.462 C 11.653 17.449 11.723 17.455 11.79 17.462 C 11.82 17.465 11.854 17.468 11.877 17.478 C 11.932 17.496 11.982 17.525 12.024 17.565 C 12.046 17.59 12.062 17.619 12.071 17.652 C 12.075 17.665 12.085 17.678 12.088 17.691 C 12.094 17.738 12.094 17.785 12.081 17.828 C 12.041 17.975 11.864 18.168 11.583 18.288 C 11.482 18.331 11.377 18.361 11.269 18.377 L 10.048 18.564 L 10.285 17.658 Z M 14.546 21.102 C 14.643 21.122 14.753 21.126 14.874 21.102 C 15.175 21.049 15.476 20.876 15.704 20.646 C 15.78 20.57 15.848 20.486 15.908 20.396 C 15.992 20.274 16.054 20.137 16.092 19.993 C 16.12 19.882 16.123 19.766 16.102 19.653 C 16.095 19.62 16.075 19.597 16.065 19.567 C 16.046 19.507 16.015 19.451 15.975 19.403 C 15.951 19.377 15.921 19.36 15.891 19.337 C 15.843 19.302 15.79 19.274 15.734 19.254 C 15.694 19.241 15.652 19.233 15.61 19.23 C 15.52 19.221 15.429 19.207 15.322 19.23 C 14.784 19.323 14.238 19.803 14.112 20.34 C 14.015 20.749 14.202 21.039 14.543 21.106 M 3.09 22.855 C 3.531 22.787 3.964 22.67 4.378 22.505 C 5.883 21.922 6.864 20.81 7.195 19.553 C 7.529 18.281 7.071 17.232 5.563 17.195 L 5.512 17.195 C 5.301 17.195 5.078 17.205 4.827 17.245 L 1.458 17.758 L 0 23.328 L 3.087 22.858 Z M 3.087 18.881 L 3.863 18.761 C 4.05 18.731 4.21 18.721 4.358 18.717 C 4.469 18.717 4.566 18.721 4.653 18.734 L 4.686 18.734 C 4.783 18.751 4.866 18.777 4.937 18.807 C 4.96 18.817 4.977 18.831 4.997 18.844 C 5.039 18.866 5.078 18.893 5.114 18.924 C 5.334 19.131 5.345 19.467 5.237 19.874 C 5.151 20.213 4.933 20.529 4.626 20.799 C 4.261 21.116 3.766 21.366 3.13 21.462 L 2.378 21.575 C 2.515 21.043 2.578 20.826 3.09 18.874 M 95.621 17.032 L 95.627 17.002 L 96.393 12.568 L 96.738 10.53 C 96.792 10.13 96.822 9.787 96.828 9.487 C 96.837 9.215 96.821 8.943 96.781 8.675 C 96.758 8.523 96.723 8.374 96.677 8.228 C 96.664 8.181 96.644 8.141 96.628 8.094 C 96.594 8.004 96.561 7.911 96.52 7.828 C 96.497 7.783 96.471 7.737 96.443 7.691 C 96.403 7.62 96.359 7.551 96.31 7.485 C 96.28 7.442 96.243 7.402 96.21 7.362 C 96.159 7.304 96.106 7.25 96.049 7.198 C 96.01 7.162 95.968 7.129 95.925 7.099 C 95.864 7.052 95.799 7.011 95.731 6.975 C 95.685 6.949 95.639 6.925 95.591 6.902 C 95.517 6.869 95.437 6.845 95.353 6.819 C 95.303 6.806 95.253 6.789 95.203 6.776 C 95.102 6.756 95 6.744 94.898 6.739 C 94.851 6.739 94.811 6.728 94.764 6.728 C 94.607 6.728 94.443 6.738 94.269 6.765 C 92.306 7.075 90.874 8.99 90.874 8.99 L 92.376 0 L 88.637 0.59 L 86.202 14.793 C 85.295 17.544 83.693 19.21 81.887 19.807 C 81.631 19.891 81.37 19.955 81.104 19.997 C 81.02 20.01 80.921 20.023 80.807 20.036 C 80.773 20.04 80.733 20.04 80.7 20.043 C 80.613 20.051 80.526 20.056 80.439 20.056 C 80.328 20.056 80.211 20.056 80.097 20.043 C 80.074 20.043 80.051 20.033 80.027 20.033 C 79.93 20.021 79.834 20 79.74 19.973 L 79.636 19.943 C 79.537 19.909 79.441 19.866 79.348 19.817 C 79.328 19.807 79.308 19.8 79.288 19.786 C 79.179 19.717 79.079 19.635 78.99 19.54 C 78.967 19.517 78.947 19.483 78.924 19.457 C 78.853 19.369 78.793 19.275 78.743 19.174 C 78.723 19.134 78.699 19.094 78.683 19.05 C 78.612 18.886 78.563 18.714 78.535 18.537 C 78.281 16.942 79.041 12.725 80.753 12.455 C 80.796 12.448 80.837 12.445 80.873 12.445 L 80.877 12.445 C 80.94 12.445 80.995 12.458 81.041 12.482 C 81.044 12.481 81.047 12.482 81.051 12.485 C 81.094 12.511 81.128 12.552 81.158 12.601 C 81.158 12.608 81.164 12.611 81.168 12.618 C 81.196 12.684 81.213 12.754 81.218 12.825 C 81.219 12.835 81.221 12.847 81.225 12.861 C 81.231 12.949 81.231 13.051 81.225 13.168 C 81.225 13.187 81.224 13.208 81.221 13.231 C 81.209 13.372 81.192 13.514 81.171 13.654 C 81.168 13.68 81.164 13.707 81.158 13.734 C 81.121 13.955 81.081 14.174 81.037 14.394 C 80.994 14.614 80.94 14.85 80.883 15.12 C 80.876 15.145 80.871 15.171 80.867 15.197 C 80.803 15.483 80.73 15.789 80.649 16.132 L 84.389 15.539 C 84.46 15.253 84.519 14.976 84.566 14.71 C 84.583 14.62 84.593 14.537 84.606 14.45 C 84.633 14.273 84.66 14.1 84.68 13.934 C 84.689 13.837 84.697 13.741 84.703 13.648 C 84.717 13.502 84.726 13.357 84.73 13.211 L 84.73 12.928 C 84.73 12.795 84.73 12.665 84.72 12.541 C 84.714 12.451 84.706 12.362 84.696 12.272 C 84.687 12.151 84.67 12.039 84.653 11.925 C 84.64 11.841 84.624 11.758 84.606 11.676 C 84.585 11.57 84.559 11.466 84.529 11.362 C 84.506 11.285 84.486 11.209 84.462 11.135 C 84.43 11.04 84.393 10.945 84.352 10.853 C 84.327 10.786 84.298 10.72 84.265 10.656 C 84.222 10.566 84.168 10.479 84.118 10.396 C 84.084 10.343 84.054 10.286 84.017 10.233 C 83.957 10.148 83.892 10.066 83.823 9.987 C 83.79 9.947 83.76 9.903 83.723 9.863 C 83.622 9.757 83.514 9.658 83.399 9.567 C 83.392 9.563 83.389 9.557 83.386 9.554 C 83.265 9.46 83.138 9.377 83.004 9.303 C 82.961 9.277 82.914 9.26 82.867 9.237 C 82.774 9.19 82.679 9.148 82.583 9.11 C 82.526 9.09 82.465 9.073 82.405 9.054 C 82.313 9.023 82.219 8.998 82.125 8.977 C 82.057 8.963 81.989 8.951 81.92 8.94 C 81.824 8.924 81.727 8.911 81.63 8.901 C 81.555 8.894 81.48 8.89 81.406 8.887 C 81.319 8.884 81.232 8.884 81.145 8.887 C 80.893 8.89 80.641 8.91 80.392 8.947 C 79.544 9.076 78.737 9.401 78.037 9.897 C 76.053 11.305 75.137 13.931 74.916 16.286 C 74.688 17.018 74.427 17.739 74.134 18.448 C 73.87 19.074 73.609 19.61 73.348 20.047 C 72.826 20.919 72.311 21.406 71.829 21.486 C 71.799 21.492 71.766 21.492 71.736 21.492 L 71.659 21.492 C 71.642 21.492 71.625 21.486 71.608 21.482 C 71.598 21.481 71.588 21.479 71.578 21.476 C 71.558 21.468 71.538 21.459 71.518 21.449 C 71.511 21.446 71.508 21.442 71.502 21.442 C 71.478 21.425 71.454 21.409 71.431 21.385 C 71.424 21.379 71.418 21.371 71.414 21.362 C 71.399 21.345 71.383 21.326 71.368 21.305 C 71.361 21.296 71.354 21.279 71.348 21.266 C 71.335 21.246 71.323 21.222 71.311 21.195 L 71.291 21.143 C 71.28 21.116 71.271 21.088 71.264 21.059 C 71.257 21.04 71.254 21.013 71.247 20.989 C 71.241 20.956 71.233 20.926 71.227 20.89 C 71.224 20.862 71.22 20.833 71.214 20.802 C 71.208 20.763 71.204 20.723 71.2 20.683 C 71.196 20.65 71.194 20.616 71.194 20.58 C 71.193 20.536 71.191 20.489 71.187 20.44 L 71.187 20.316 C 71.187 20.263 71.188 20.206 71.19 20.146 C 71.19 20.1 71.19 20.056 71.197 20.007 C 71.197 19.943 71.204 19.877 71.211 19.807 L 71.22 19.653 C 71.227 19.577 71.237 19.496 71.244 19.414 C 71.251 19.36 71.254 19.307 71.26 19.247 C 71.271 19.154 71.287 19.05 71.301 18.951 L 71.321 18.793 C 71.344 18.634 71.372 18.464 71.405 18.281 L 72.742 10.496 L 75.762 10 L 76.187 7.655 L 73.127 8.158 L 73.662 5.469 L 69.923 6.059 L 69.387 8.751 L 67.739 9.011 L 67.31 11.356 L 68.999 11.089 L 67.872 17.622 C 66.855 20.816 65.782 22.422 65.023 22.542 C 65.001 22.545 64.978 22.547 64.956 22.548 L 64.899 22.548 C 64.885 22.548 64.872 22.542 64.859 22.538 C 64.833 22.528 64.808 22.515 64.785 22.498 C 64.782 22.498 64.778 22.492 64.775 22.488 C 64.762 22.475 64.745 22.462 64.732 22.445 C 64.724 22.438 64.718 22.429 64.715 22.418 C 64.705 22.401 64.691 22.388 64.681 22.368 C 64.675 22.355 64.671 22.342 64.665 22.329 C 64.654 22.308 64.648 22.288 64.638 22.265 L 64.621 22.212 C 64.607 22.163 64.596 22.112 64.588 22.061 C 64.581 22.031 64.577 21.999 64.574 21.965 L 64.565 21.879 C 64.56 21.84 64.558 21.801 64.557 21.762 C 64.558 21.73 64.557 21.695 64.554 21.659 L 64.554 21.393 C 64.555 21.339 64.557 21.282 64.561 21.222 C 64.561 21.176 64.565 21.133 64.568 21.083 C 64.572 21.016 64.577 20.949 64.584 20.882 C 64.588 20.829 64.591 20.779 64.598 20.726 C 64.605 20.649 64.614 20.569 64.624 20.486 L 64.645 20.316 C 64.658 20.219 64.672 20.119 64.688 20.016 C 64.695 19.961 64.702 19.905 64.711 19.85 C 64.735 19.686 64.765 19.513 64.795 19.327 L 66.133 11.538 L 62.39 12.132 L 62.069 13.924 C 62.069 13.924 62.059 13.9 62.043 13.867 C 62.039 13.86 62.035 13.857 62.032 13.851 C 61.999 13.784 61.962 13.72 61.922 13.657 C 61.874 13.58 61.822 13.504 61.768 13.431 C 61.758 13.418 61.748 13.401 61.738 13.387 C 61.666 13.297 61.592 13.209 61.514 13.124 L 61.47 13.081 C 61.375 12.985 61.273 12.895 61.166 12.811 C 61.152 12.801 61.139 12.795 61.126 12.785 C 61 12.691 60.865 12.608 60.725 12.538 C 60.721 12.538 60.718 12.537 60.715 12.535 C 60.56 12.463 60.398 12.405 60.233 12.362 C 60.216 12.362 60.203 12.352 60.186 12.349 C 60.003 12.308 59.817 12.286 59.631 12.285 L 59.534 12.285 C 59.39 12.285 59.239 12.295 59.082 12.322 C 58.209 12.461 57.493 12.911 56.915 13.564 C 56.678 13.836 56.467 14.128 56.283 14.437 C 56.088 14.765 55.917 15.107 55.771 15.459 C 55.243 16.722 54.938 18.204 54.794 19.587 C 54.406 20.823 54.028 21.818 53.667 22.591 C 53.065 23.877 52.503 24.537 51.998 24.617 C 51.971 24.62 51.944 24.623 51.918 24.623 L 51.848 24.623 C 51.827 24.62 51.811 24.613 51.79 24.607 C 51.787 24.607 51.781 24.607 51.777 24.604 C 51.754 24.594 51.733 24.58 51.711 24.567 C 51.703 24.564 51.697 24.554 51.69 24.55 C 51.677 24.537 51.66 24.527 51.647 24.511 L 51.627 24.48 C 51.614 24.465 51.602 24.448 51.593 24.43 C 51.587 24.417 51.58 24.403 51.573 24.387 C 51.562 24.365 51.552 24.343 51.543 24.321 C 51.535 24.302 51.53 24.283 51.526 24.264 C 51.519 24.236 51.512 24.208 51.503 24.18 C 51.497 24.157 51.492 24.134 51.49 24.11 C 51.484 24.08 51.478 24.047 51.473 24.011 L 51.463 23.924 L 51.453 23.804 C 51.453 23.771 51.45 23.734 51.45 23.698 L 51.45 23.438 C 51.45 23.381 51.452 23.324 51.456 23.265 C 51.456 23.221 51.46 23.178 51.463 23.128 C 51.466 23.064 51.473 22.991 51.479 22.925 C 51.483 22.874 51.486 22.828 51.493 22.774 C 51.499 22.698 51.509 22.612 51.52 22.528 C 51.526 22.475 51.53 22.425 51.536 22.368 C 51.55 22.268 51.563 22.162 51.58 22.055 L 51.6 21.911 C 51.623 21.749 51.654 21.579 51.684 21.396 L 53.021 13.611 L 49.282 14.2 L 48.074 21.173 C 47.707 22.285 47.409 23.111 47.148 23.714 C 46.71 24.716 46.369 25.103 45.961 25.166 C 45.93 25.17 45.9 25.172 45.87 25.173 L 45.854 25.173 C 45.811 25.173 45.769 25.165 45.73 25.15 C 45.73 25.15 45.723 25.15 45.723 25.147 C 45.682 25.132 45.645 25.106 45.616 25.073 C 45.616 25.073 45.613 25.073 45.613 25.07 C 45.576 25.028 45.548 24.979 45.529 24.926 L 45.519 24.907 C 45.493 24.834 45.476 24.76 45.466 24.683 C 45.466 24.67 45.459 24.657 45.459 24.644 C 45.445 24.539 45.437 24.433 45.436 24.327 L 45.436 24.264 C 45.435 24.093 45.443 23.923 45.459 23.754 C 45.472 23.581 45.493 23.394 45.519 23.178 C 45.519 23.155 45.526 23.132 45.529 23.108 C 45.559 22.878 45.599 22.628 45.646 22.348 L 46.984 14.563 L 43.245 15.153 L 42.104 21.769 C 42.047 21.949 41.987 22.128 41.923 22.305 C 41.907 22.358 41.883 22.408 41.867 22.462 C 41.824 22.585 41.779 22.708 41.732 22.831 C 41.71 22.895 41.683 22.958 41.659 23.021 C 41.616 23.128 41.576 23.237 41.532 23.345 C 41.502 23.414 41.476 23.481 41.445 23.548 C 41.405 23.647 41.361 23.744 41.322 23.84 C 41.291 23.91 41.259 23.98 41.225 24.05 C 41.185 24.14 41.141 24.23 41.101 24.317 C 41.067 24.387 41.03 24.457 40.997 24.526 C 40.953 24.61 40.913 24.69 40.87 24.773 C 40.833 24.84 40.796 24.906 40.759 24.97 C 40.716 25.047 40.672 25.123 40.629 25.196 C 40.588 25.26 40.549 25.322 40.512 25.383 C 40.468 25.453 40.422 25.523 40.378 25.589 C 40.339 25.648 40.297 25.706 40.254 25.763 C 40.207 25.827 40.16 25.889 40.114 25.949 C 40.07 26.003 40.03 26.056 39.987 26.106 C 39.939 26.162 39.891 26.216 39.843 26.269 C 39.8 26.316 39.755 26.362 39.709 26.406 C 39.659 26.455 39.612 26.502 39.562 26.546 C 39.518 26.586 39.473 26.624 39.428 26.662 C 39.378 26.702 39.327 26.741 39.275 26.779 C 39.227 26.812 39.184 26.842 39.137 26.869 C 39.084 26.901 39.03 26.929 38.976 26.958 C 38.929 26.983 38.882 27.005 38.833 27.025 C 38.779 27.049 38.723 27.065 38.669 27.085 C 38.622 27.102 38.572 27.115 38.525 27.129 C 38.468 27.142 38.411 27.148 38.354 27.155 C 38.305 27.161 38.257 27.168 38.208 27.168 C 38.114 27.172 38.017 27.168 37.923 27.155 L 39.93 15.683 L 36.171 16.276 L 35.869 18.061 C 35.876 18.077 35.876 18.087 35.876 18.087 L 35.839 18.011 C 35.819 17.971 35.792 17.914 35.756 17.848 C 35.749 17.838 35.742 17.821 35.732 17.808 C 35.681 17.714 35.621 17.623 35.555 17.538 C 35.489 17.445 35.416 17.356 35.338 17.272 L 35.311 17.246 C 35.218 17.15 35.12 17.059 35.016 16.975 C 34.996 16.958 34.976 16.943 34.956 16.929 C 34.84 16.841 34.717 16.763 34.588 16.695 C 34.565 16.682 34.538 16.672 34.515 16.663 C 34.355 16.584 34.187 16.524 34.013 16.486 C 33.834 16.446 33.651 16.424 33.468 16.422 C 33.434 16.422 33.404 16.419 33.371 16.419 C 33.224 16.419 33.067 16.429 32.903 16.458 C 31.554 16.672 30.581 17.618 29.896 18.898 C 29.484 19.664 29.173 20.55 28.949 21.472 C 28.651 22.698 28.504 23.984 28.461 25.127 C 28.42 26.269 28.487 27.262 28.618 27.908 C 28.657 28.108 28.709 28.301 28.772 28.488 C 28.792 28.547 28.819 28.604 28.842 28.664 C 28.889 28.784 28.932 28.907 28.989 29.02 C 29.023 29.087 29.059 29.147 29.096 29.21 C 29.15 29.307 29.207 29.407 29.27 29.497 C 29.314 29.56 29.36 29.617 29.407 29.673 C 29.471 29.753 29.538 29.833 29.608 29.903 C 29.662 29.956 29.715 30.003 29.772 30.053 C 29.845 30.117 29.922 30.177 30.002 30.233 C 30.064 30.272 30.126 30.31 30.19 30.346 C 30.274 30.392 30.36 30.432 30.447 30.466 C 30.608 30.53 30.777 30.573 30.949 30.593 C 31.023 30.603 31.096 30.616 31.173 30.619 C 31.334 30.626 31.497 30.626 31.669 30.596 C 32.661 30.439 33.437 29.73 33.949 29.137 L 33.133 34.344 C 33.097 34.556 33.067 34.763 33.043 34.966 C 33.036 35.036 33.033 35.104 33.027 35.17 C 33.013 35.303 33.003 35.436 32.996 35.566 C 32.993 35.646 32.996 35.719 32.993 35.799 C 32.993 35.913 32.989 36.026 32.993 36.139 C 32.993 36.219 33 36.296 33.006 36.372 C 33.013 36.475 33.016 36.582 33.027 36.682 C 33.034 36.76 33.042 36.835 33.053 36.909 C 33.066 37.005 33.08 37.099 33.097 37.192 C 33.11 37.265 33.127 37.335 33.143 37.408 C 33.164 37.495 33.183 37.585 33.207 37.668 C 33.226 37.738 33.248 37.806 33.27 37.871 C 33.297 37.951 33.324 38.031 33.351 38.104 C 33.375 38.168 33.4 38.231 33.428 38.294 C 33.46 38.367 33.495 38.438 33.531 38.508 C 33.561 38.564 33.592 38.624 33.622 38.677 C 33.662 38.744 33.702 38.804 33.742 38.867 C 33.775 38.918 33.81 38.967 33.846 39.014 C 33.892 39.074 33.94 39.127 33.986 39.181 C 34.024 39.224 34.063 39.266 34.103 39.307 C 34.156 39.356 34.211 39.404 34.267 39.45 C 34.307 39.483 34.347 39.521 34.391 39.55 C 34.451 39.594 34.518 39.633 34.582 39.67 C 34.625 39.693 34.665 39.724 34.709 39.747 C 34.786 39.786 34.866 39.813 34.946 39.847 C 34.983 39.86 35.016 39.877 35.056 39.89 C 35.177 39.927 35.301 39.957 35.428 39.973 C 35.446 39.974 35.463 39.975 35.481 39.976 C 35.592 39.99 35.709 40 35.826 40 C 35.973 40 36.123 39.987 36.284 39.963 C 38.014 39.69 39.167 37.435 39.796 35.093 C 39.919 34.631 40.024 34.164 40.11 33.694 C 40.281 32.775 40.365 31.902 40.371 31.196 C 40.385 30.349 40.298 29.733 40.094 29.214 C 40.026 29.041 39.943 28.875 39.846 28.717 C 40.281 28.488 40.679 28.161 41.04 27.758 C 41.42 27.326 41.752 26.855 42.031 26.352 C 42.084 26.556 42.154 26.742 42.228 26.916 C 42.251 26.972 42.281 27.022 42.308 27.075 C 42.362 27.185 42.415 27.291 42.479 27.391 C 42.516 27.448 42.552 27.498 42.592 27.549 C 42.652 27.631 42.714 27.709 42.777 27.781 C 42.819 27.827 42.863 27.872 42.91 27.915 C 42.978 27.977 43.047 28.035 43.117 28.088 C 43.165 28.124 43.214 28.158 43.265 28.188 C 43.342 28.234 43.419 28.275 43.496 28.311 C 43.545 28.337 43.599 28.361 43.65 28.381 C 43.736 28.414 43.823 28.437 43.914 28.461 C 43.963 28.474 44.011 28.491 44.06 28.498 C 44.171 28.517 44.285 28.528 44.402 28.53 C 44.432 28.53 44.462 28.537 44.492 28.537 C 44.646 28.537 44.8 28.528 44.957 28.504 C 46.352 28.284 47.352 27.228 48.125 25.676 C 48.188 25.859 48.262 26.023 48.342 26.179 C 48.369 26.229 48.399 26.273 48.426 26.319 C 48.483 26.419 48.542 26.512 48.603 26.599 C 48.64 26.649 48.68 26.692 48.717 26.736 C 48.777 26.808 48.84 26.876 48.907 26.939 C 48.951 26.978 48.994 27.019 49.038 27.055 C 49.105 27.111 49.174 27.162 49.245 27.209 C 49.292 27.239 49.339 27.268 49.386 27.295 C 49.462 27.335 49.543 27.372 49.62 27.405 C 49.666 27.421 49.71 27.444 49.757 27.458 C 49.851 27.487 49.947 27.512 50.044 27.532 C 50.078 27.538 50.111 27.548 50.148 27.555 C 50.283 27.575 50.419 27.585 50.556 27.585 C 50.707 27.584 50.86 27.572 51.018 27.548 C 51.623 27.452 52.182 27.188 52.697 26.788 C 53.057 26.506 53.385 26.184 53.674 25.829 C 54.132 25.27 54.55 24.604 54.925 23.867 C 54.924 23.87 54.925 23.874 54.928 23.877 C 54.974 24.07 55.029 24.257 55.092 24.437 C 55.112 24.5 55.138 24.554 55.165 24.614 C 55.212 24.733 55.259 24.85 55.316 24.96 C 55.35 25.023 55.386 25.084 55.423 25.143 C 55.477 25.24 55.53 25.333 55.593 25.42 C 55.637 25.479 55.68 25.533 55.728 25.59 C 55.791 25.666 55.855 25.743 55.922 25.809 C 55.972 25.859 56.025 25.906 56.078 25.952 C 56.149 26.016 56.223 26.073 56.299 26.123 C 56.359 26.162 56.416 26.199 56.477 26.229 C 56.619 26.304 56.768 26.364 56.922 26.409 C 57.012 26.432 57.105 26.449 57.199 26.463 C 57.269 26.472 57.339 26.482 57.413 26.485 C 57.567 26.492 57.724 26.489 57.891 26.463 C 59.791 26.163 60.979 23.824 60.979 23.824 C 60.979 23.824 60.989 23.847 61.002 23.884 C 61.003 23.889 61.005 23.895 61.009 23.901 C 61.026 23.944 61.052 24.001 61.089 24.071 L 61.106 24.104 C 61.143 24.174 61.192 24.257 61.246 24.343 L 61.276 24.387 C 61.337 24.474 61.407 24.57 61.487 24.663 C 61.501 24.677 61.515 24.691 61.527 24.706 C 61.614 24.803 61.711 24.9 61.825 24.99 C 61.835 25 61.849 25.006 61.862 25.016 C 61.982 25.11 62.113 25.2 62.263 25.273 L 62.27 25.273 C 62.417 25.35 62.584 25.407 62.762 25.453 C 62.778 25.46 62.795 25.463 62.811 25.469 C 62.986 25.509 63.18 25.53 63.384 25.536 L 63.487 25.536 C 63.64 25.536 63.802 25.523 63.972 25.496 C 65.591 25.24 66.822 23.987 67.789 22.245 C 67.846 22.448 67.912 22.635 67.989 22.811 C 68.013 22.868 68.043 22.918 68.073 22.971 C 68.127 23.081 68.183 23.191 68.247 23.288 C 68.283 23.345 68.324 23.394 68.361 23.447 C 68.456 23.581 68.566 23.704 68.688 23.814 C 68.803 23.919 68.927 24.013 69.059 24.094 C 69.14 24.144 69.22 24.184 69.307 24.22 C 69.361 24.244 69.411 24.27 69.465 24.29 C 69.558 24.323 69.659 24.35 69.756 24.374 C 69.802 24.383 69.849 24.4 69.899 24.406 C 70.05 24.434 70.204 24.447 70.361 24.447 C 70.528 24.447 70.702 24.434 70.876 24.404 C 72.829 24.094 74.244 22.338 75.271 20.126 C 75.355 20.369 75.455 20.596 75.565 20.813 C 75.602 20.882 75.646 20.946 75.682 21.009 C 75.762 21.149 75.85 21.289 75.943 21.416 C 76.086 21.598 76.241 21.771 76.408 21.932 C 76.474 21.992 76.542 22.051 76.613 22.109 C 76.723 22.198 76.843 22.279 76.963 22.355 C 77.037 22.402 77.111 22.448 77.187 22.492 C 77.329 22.564 77.478 22.629 77.632 22.685 C 77.706 22.711 77.773 22.745 77.847 22.768 C 78.081 22.842 78.324 22.898 78.586 22.935 L 78.623 22.935 C 78.881 22.966 79.142 22.98 79.402 22.978 C 79.736 22.974 80.088 22.952 80.458 22.891 C 80.962 22.812 81.457 22.684 81.937 22.511 C 82.387 22.347 82.82 22.142 83.232 21.898 C 84.017 21.425 84.719 20.825 85.309 20.123 L 85.014 21.842 L 88.754 21.252 L 90.226 12.805 C 90.905 11.496 91.787 10.792 92.276 10.713 C 92.343 10.703 92.403 10.706 92.463 10.713 C 92.493 10.713 92.52 10.72 92.547 10.726 C 92.586 10.737 92.624 10.751 92.66 10.769 C 92.684 10.782 92.708 10.792 92.727 10.806 C 92.76 10.834 92.791 10.865 92.818 10.899 C 92.831 10.916 92.848 10.929 92.858 10.949 C 92.893 11.012 92.918 11.079 92.932 11.149 C 92.942 11.219 92.942 11.312 92.938 11.419 L 91.884 18.221 C 91.859 18.391 91.853 18.563 91.868 18.734 C 91.871 18.791 91.888 18.841 91.898 18.898 C 91.915 19.004 91.932 19.114 91.965 19.214 C 91.985 19.274 92.012 19.331 92.038 19.391 C 92.075 19.48 92.112 19.567 92.162 19.65 C 92.196 19.707 92.239 19.76 92.276 19.813 C 92.329 19.887 92.383 19.96 92.447 20.026 C 92.494 20.076 92.543 20.123 92.594 20.166 C 92.711 20.273 92.842 20.364 92.982 20.44 C 93.062 20.483 93.142 20.522 93.223 20.556 C 93.29 20.582 93.353 20.603 93.42 20.623 C 93.507 20.648 93.597 20.667 93.691 20.679 C 93.761 20.69 93.831 20.703 93.905 20.705 C 94.053 20.715 94.202 20.71 94.349 20.689 L 95.019 20.58 C 95.019 20.58 95.052 20.576 95.065 20.573 L 103.953 19.08 L 104.059 18.757 L 104.842 14.327 L 95.644 17.026 Z M 35.344 21.049 L 34.676 24.853 C 34.682 24.836 34.686 24.827 34.689 24.827 C 34.689 24.827 34.682 24.856 34.665 24.9 L 34.665 24.906 C 34.649 24.95 34.622 25.013 34.592 25.086 C 34.588 25.096 34.582 25.106 34.579 25.116 C 34.533 25.217 34.484 25.316 34.431 25.413 C 34.378 25.514 34.321 25.613 34.261 25.709 C 34.25 25.726 34.237 25.743 34.227 25.759 C 34.16 25.862 34.086 25.963 34.006 26.062 C 33.993 26.079 33.98 26.092 33.966 26.109 C 33.883 26.209 33.792 26.306 33.695 26.389 C 33.682 26.399 33.668 26.412 33.655 26.419 C 33.552 26.506 33.445 26.582 33.327 26.645 C 33.317 26.651 33.307 26.656 33.297 26.658 C 33.174 26.722 33.042 26.766 32.906 26.789 C 32.832 26.8 32.757 26.803 32.682 26.799 C 32.652 26.797 32.623 26.793 32.595 26.785 C 32.547 26.777 32.501 26.763 32.458 26.742 C 32.431 26.729 32.407 26.719 32.384 26.702 C 32.339 26.67 32.3 26.63 32.267 26.586 C 32.251 26.562 32.23 26.546 32.217 26.522 C 32.164 26.431 32.125 26.332 32.1 26.229 C 32.026 25.876 32.023 25.323 32.083 24.683 C 32.13 24.207 32.21 23.681 32.324 23.161 C 32.364 22.988 32.404 22.815 32.451 22.645 C 32.545 22.302 32.652 21.972 32.772 21.662 C 33.016 21.043 33.321 20.523 33.679 20.213 C 33.859 20.06 34.05 19.96 34.257 19.927 C 34.35 19.914 34.431 19.927 34.511 19.936 C 34.541 19.943 34.575 19.943 34.605 19.953 C 34.675 19.977 34.739 20.009 34.799 20.05 C 34.813 20.06 34.826 20.063 34.839 20.073 C 34.906 20.126 34.967 20.193 35.02 20.263 C 35.033 20.283 35.047 20.307 35.06 20.326 C 35.093 20.38 35.126 20.43 35.153 20.486 C 35.167 20.512 35.18 20.54 35.19 20.569 C 35.214 20.619 35.233 20.667 35.247 20.713 C 35.258 20.739 35.264 20.762 35.274 20.786 C 35.287 20.829 35.301 20.872 35.311 20.909 C 35.314 20.929 35.32 20.942 35.324 20.959 C 35.334 20.999 35.341 21.032 35.344 21.046 C 35.347 21.062 35.351 21.062 35.347 21.036 L 35.347 21.049 Z M 38.548 31.202 C 38.398 32.336 38.17 34.014 37.826 35.3 C 37.749 35.587 37.666 35.849 37.575 36.086 C 37.441 36.439 37.294 36.726 37.13 36.909 C 37.02 37.033 36.903 37.105 36.779 37.125 C 36.74 37.132 36.701 37.134 36.662 37.132 C 36.648 37.131 36.633 37.129 36.619 37.125 C 36.599 37.123 36.58 37.118 36.562 37.109 C 36.55 37.103 36.538 37.095 36.528 37.085 C 36.512 37.075 36.499 37.062 36.488 37.046 C 36.481 37.032 36.471 37.018 36.465 37.005 C 36.455 36.984 36.447 36.961 36.441 36.938 C 36.435 36.922 36.431 36.899 36.428 36.879 L 36.418 36.775 C 36.418 36.749 36.414 36.726 36.414 36.695 C 36.414 36.652 36.414 36.602 36.418 36.552 C 36.418 36.519 36.418 36.489 36.425 36.456 C 36.428 36.395 36.438 36.322 36.445 36.253 L 36.454 36.152 C 36.468 36.039 36.485 35.917 36.505 35.779 L 37.552 29.257 C 38.107 29.351 38.739 29.913 38.555 31.199 M 60.895 20.736 C 60.895 20.736 60.804 20.979 60.634 21.296 C 60.521 21.505 60.37 21.745 60.182 21.968 C 60.089 22.078 59.988 22.185 59.878 22.278 C 59.657 22.465 59.403 22.608 59.119 22.655 C 59.035 22.668 58.965 22.661 58.891 22.655 C 58.857 22.651 58.822 22.645 58.788 22.638 C 58.739 22.623 58.693 22.6 58.651 22.572 C 58.624 22.555 58.594 22.538 58.57 22.515 C 58.526 22.468 58.489 22.415 58.46 22.358 C 58.444 22.328 58.423 22.308 58.41 22.272 C 58.36 22.15 58.325 22.022 58.306 21.892 C 58.263 21.615 58.256 21.239 58.283 20.802 C 58.326 20.08 58.47 19.204 58.701 18.384 C 58.791 18.058 58.899 17.738 59.018 17.445 C 59.077 17.301 59.141 17.16 59.209 17.022 C 59.477 16.486 59.798 16.072 60.169 15.889 C 60.264 15.843 60.36 15.812 60.457 15.796 C 60.537 15.783 60.607 15.793 60.678 15.803 C 60.718 15.809 60.761 15.812 60.798 15.826 C 60.845 15.843 60.889 15.863 60.928 15.886 C 60.962 15.903 60.995 15.923 61.025 15.946 C 61.065 15.976 61.099 16.009 61.133 16.042 C 61.159 16.069 61.185 16.096 61.21 16.126 C 61.239 16.165 61.267 16.206 61.293 16.249 C 61.314 16.279 61.333 16.309 61.35 16.339 C 61.373 16.382 61.394 16.426 61.413 16.469 L 61.453 16.552 C 61.469 16.595 61.484 16.636 61.497 16.676 C 61.504 16.699 61.514 16.722 61.521 16.742 C 61.534 16.785 61.544 16.819 61.55 16.845 C 61.55 16.855 61.558 16.868 61.558 16.876 C 61.564 16.908 61.571 16.925 61.571 16.925 L 60.898 20.743 Z" fill="var(--1dapk02, rgb(0,0,0))" height="40px" id="JnnpV8WLz" transform="translate(1.311 0)" width="104.84202056481485px"/><path d="M 28.772 11.013 C 29.348 10.547 33.03 9.804 33.739 9.687 C 33.776 9.451 33.833 9.144 33.896 8.788 C 33.96 8.432 34.027 8.028 34.087 7.592 C 34.442 4.977 34.448 1.229 30.819 0.257 C 30.498 0.17 30.187 0.11 29.882 0.067 C 29.782 0.054 29.688 0.05 29.591 0.041 C 29.392 0.019 29.191 0.005 28.99 0 C 28.842 0 28.699 0 28.555 0.007 C 28.471 0.01 28.384 0.013 28.304 0.02 C 28.123 0.033 27.946 0.06 27.772 0.087 L 27.621 0.107 C 27.404 0.147 27.188 0.198 26.976 0.26 C 26.923 0.276 26.869 0.297 26.815 0.313 C 26.662 0.36 26.511 0.411 26.364 0.466 C 26.291 0.497 26.219 0.527 26.15 0.557 C 26.026 0.61 25.902 0.663 25.785 0.72 C 25.715 0.754 25.644 0.789 25.574 0.827 C 25.461 0.886 25.347 0.95 25.24 1.013 C 25.177 1.049 25.113 1.089 25.049 1.126 C 24.935 1.196 24.829 1.269 24.722 1.342 C 24.668 1.379 24.614 1.413 24.564 1.45 C 24.431 1.546 24.307 1.642 24.18 1.739 C 24.159 1.755 24.136 1.772 24.116 1.789 C 23.978 1.903 23.842 2.02 23.708 2.139 C 23.668 2.175 23.631 2.209 23.594 2.245 C 23.507 2.325 23.421 2.409 23.34 2.488 C 23.296 2.531 23.254 2.576 23.213 2.622 C 23.143 2.695 23.073 2.765 23.009 2.835 L 22.892 2.961 C 22.828 3.031 22.772 3.098 22.715 3.161 C 22.682 3.202 22.648 3.241 22.615 3.278 C 22.558 3.343 22.504 3.41 22.451 3.478 L 22.384 3.561 C 22.313 3.651 22.249 3.734 22.193 3.811 C 21.209 5.12 20.635 7.202 20.444 9.487 C 20.247 11.786 20.661 14.671 21.688 18.152 C 21.869 18.664 22.063 19.257 22.24 19.884 C 22.611 21.046 22.992 22.605 22.922 23.921 C 22.909 24.188 22.875 24.448 22.828 24.694 C 22.812 24.777 22.785 24.85 22.768 24.93 C 22.728 25.09 22.691 25.25 22.641 25.4 C 22.611 25.487 22.567 25.566 22.531 25.65 C 22.477 25.777 22.424 25.906 22.357 26.026 C 22.31 26.106 22.253 26.18 22.2 26.256 C 22.13 26.36 22.059 26.466 21.979 26.559 C 21.915 26.629 21.845 26.689 21.778 26.753 C 21.691 26.833 21.604 26.916 21.507 26.986 C 21.43 27.042 21.343 27.085 21.26 27.132 C 21.158 27.194 21.051 27.248 20.942 27.296 C 20.851 27.332 20.751 27.359 20.654 27.389 C 20.534 27.421 20.417 27.456 20.29 27.478 C 20.183 27.495 20.072 27.506 19.959 27.512 C 19.778 27.522 19.598 27.538 19.396 27.522 C 16.754 27.289 15.774 25.63 15.5 23.865 C 15.466 23.655 15.443 23.442 15.43 23.228 C 15.414 22.982 15.409 22.735 15.413 22.488 C 15.412 22.452 15.413 22.415 15.416 22.379 C 15.419 22.245 15.424 22.113 15.43 21.982 C 15.443 21.782 15.46 21.586 15.483 21.399 L 13.784 21.656 L 9.794 22.259 L 6.519 22.755 L 1.027 23.584 L 0.79 24.587 L 0 27.919 L 8.473 25.703 C 8.522 25.966 8.59 26.233 8.667 26.493 C 8.69 26.579 8.724 26.666 8.75 26.753 C 8.807 26.93 8.864 27.102 8.927 27.275 C 8.967 27.379 9.011 27.478 9.055 27.582 C 9.121 27.739 9.185 27.892 9.258 28.045 C 9.309 28.152 9.366 28.255 9.419 28.361 C 9.495 28.506 9.573 28.65 9.653 28.794 C 9.717 28.901 9.78 29.004 9.847 29.111 C 10.086 29.492 10.35 29.857 10.636 30.203 C 10.717 30.303 10.8 30.401 10.887 30.497 C 10.995 30.62 11.105 30.737 11.221 30.853 C 11.313 30.946 11.402 31.037 11.497 31.126 C 11.617 31.239 11.741 31.349 11.868 31.456 C 11.964 31.54 12.062 31.622 12.162 31.703 C 12.296 31.809 12.433 31.906 12.57 32.005 C 12.674 32.079 12.774 32.156 12.881 32.225 C 13.028 32.322 13.186 32.412 13.339 32.502 C 13.443 32.562 13.547 32.629 13.654 32.685 C 13.827 32.778 14.008 32.858 14.189 32.938 C 14.285 32.982 14.379 33.032 14.476 33.072 C 14.734 33.179 15.002 33.272 15.273 33.358 C 15.299 33.365 15.323 33.375 15.349 33.384 C 15.647 33.475 15.955 33.548 16.266 33.608 C 16.366 33.628 16.47 33.638 16.57 33.651 C 16.788 33.684 17.005 33.721 17.226 33.741 C 17.353 33.751 17.487 33.754 17.617 33.761 C 17.814 33.771 18.008 33.778 18.209 33.778 C 18.611 33.775 19.016 33.752 19.433 33.698 C 20.362 33.581 21.273 33.352 22.146 33.015 C 22.975 32.69 23.762 32.268 24.491 31.756 C 24.846 31.505 25.186 31.233 25.508 30.94 C 26.138 30.365 26.689 29.71 27.147 28.991 C 27.374 28.632 27.581 28.254 27.769 27.858 C 27.819 27.752 27.849 27.636 27.896 27.529 C 28.524 26.03 28.762 24.371 28.568 22.542 C 28.478 21.679 28.267 20.793 27.949 19.891 C 27.906 19.764 27.866 19.64 27.819 19.514 C 27.421 18.478 26.879 17.415 26.187 16.329 C 25.975 15.995 25.773 15.655 25.581 15.31 C 25.233 14.684 24.935 14.031 24.688 13.358 C 24.577 13.052 24.481 12.741 24.401 12.425 C 24.086 11.2 23.976 10.074 24.062 9.041 C 24.143 8.218 24.267 7.515 24.444 6.902 C 24.621 6.29 24.852 5.76 25.146 5.287 C 25.293 5.047 25.444 4.83 25.601 4.637 C 26.067 4.057 26.571 3.678 27.113 3.498 C 27.274 3.445 27.427 3.418 27.578 3.398 L 27.688 3.388 C 27.838 3.375 27.989 3.384 28.136 3.414 C 28.273 3.442 28.401 3.491 28.528 3.555 L 28.628 3.605 C 28.755 3.675 28.882 3.761 29.003 3.868 C 29.407 4.231 29.688 4.714 29.819 5.443 C 29.863 5.686 29.889 5.956 29.9 6.259 C 29.925 7.165 29.722 8.282 29.291 9.611 C 29.146 10.053 28.976 10.52 28.782 11.01 M 111.994 14.587 C 112.081 15.767 111.218 16.759 110.011 16.843 C 108.813 16.929 107.793 16.073 107.709 14.894 C 107.626 13.741 108.512 12.746 109.709 12.662 C 110.917 12.575 111.913 13.435 111.997 14.587 M 108.238 14.857 C 108.305 15.783 109.047 16.469 109.987 16.399 C 110.903 16.332 111.525 15.55 111.458 14.637 C 111.392 13.711 110.663 13.011 109.733 13.078 C 108.803 13.145 108.171 13.941 108.238 14.853 M 109.602 15.856 L 109.117 15.89 L 108.967 13.811 C 109.157 13.758 109.421 13.714 109.766 13.691 C 110.161 13.661 110.342 13.714 110.502 13.791 C 110.623 13.871 110.723 14.031 110.739 14.234 C 110.757 14.464 110.593 14.654 110.342 14.747 L 110.342 14.774 C 110.552 14.837 110.679 14.981 110.763 15.254 C 110.85 15.567 110.897 15.69 110.954 15.763 L 110.432 15.8 C 110.361 15.73 110.311 15.54 110.231 15.303 C 110.178 15.077 110.041 14.987 109.773 15.003 L 109.545 15.02 L 109.606 15.856 Z M 109.532 14.677 L 109.763 14.66 C 110.03 14.644 110.241 14.537 110.224 14.321 C 110.211 14.131 110.06 14.014 109.756 14.037 C 109.629 14.044 109.542 14.064 109.492 14.081 L 109.535 14.677 Z" fill="var(--1dapk02, rgb(0,0,0))" height="33.777879603298004px" id="u9t0kfZ0v" transform="translate(0 1.31)" width="112.0000014944939px"/></g></svg>