<!-- macOS app icon: the brand mark (PistachioMark.tsx) on Apple's 1024pt icon
     grid - content rect 824x824 with the system corner radius, transparent
     margin, and the soft shadow macOS icons bake in. -->
<svg xmlns="http://www.w3.org/2000/svg" viewBox="0 0 1024 1024" fill="none">
  <defs>
    <filter id="shadow" x="-20%" y="-20%" width="140%" height="140%">
      <feDropShadow dx="0" dy="10" stdDeviation="12" flood-color="#000" flood-opacity="0.3"/>
    </filter>
    <linearGradient id="fill" x1="0" y1="0" x2="0" y2="1">
      <stop offset="0" stop-color="#57b168"/>
      <stop offset="1" stop-color="#4d9f5c"/>
    </linearGradient>
  </defs>
  <rect x="100" y="100" width="824" height="824" rx="185" fill="url(#fill)" filter="url(#shadow)"/>
  <g transform="translate(100 100) scale(17.1667)">
    <path d="M115.10 51.50A13.5 13.5 0 0 1 115.10 65.00L93.40 102.60A13.5 13.5 0 0 1 81.71 109.35L38.29 109.35A13.5 13.5 0 0 1 26.60 102.60L4.90 65.00A13.5 13.5 0 0 1 4.90 51.50L27.47 12.40A3.5 3.5 0 0 1 33.53 12.40L56.54 52.25A4 4 0 0 0 63.46 52.25L86.47 12.40A3.5 3.5 0 0 1 92.53 12.40Z" transform="translate(6 6) scale(0.3)" fill="#fff"/>
  </g>
</svg>
